<svg width="56" height="45" viewBox="0 0 56 45" fill="none" xmlns="http://www.w3.org/2000/svg">
<path d="M7.00098 4.21843C7.00098 3.09964 7.44346 2.02666 8.23108 1.23555C9.01869 0.444441 10.0869 0 11.2008 0C12.3146 0 13.3829 0.444441 14.1705 1.23555C14.9581 2.02666 15.4006 3.09964 15.4006 4.21843C15.4006 5.33723 14.9581 6.41021 14.1705 7.20132C13.3829 7.99243 12.3146 8.43687 11.2008 8.43687C10.0869 8.43687 9.01869 7.99243 8.23108 7.20132C7.44346 6.41021 7.00098 5.33723 7.00098 4.21843ZM12.6007 21.2416V26.9628L17.063 31.4449C17.6842 32.0689 18.0955 32.8686 18.2355 33.7387L19.5654 41.7273C19.8191 43.2565 18.7867 44.7066 17.2643 44.9615C15.7418 45.2163 14.2981 44.1793 14.0444 42.6501L12.7932 35.1009L5.84604 28.1229C4.79609 27.0683 4.20111 25.6358 4.20111 24.1418V16.3992C4.20111 13.5517 6.49351 11.2492 9.32837 11.2492C11.437 11.2492 13.3969 12.3038 14.5694 14.0614L18.7167 20.31L19.6004 20.7494V14.0527C19.6004 12.4971 20.8516 11.2404 22.4003 11.2404H33.5997C35.1484 11.2404 36.3996 12.4971 36.3996 14.0527V20.7494L37.2833 20.31L41.4306 14.0614C42.5943 12.3038 44.563 11.2492 46.6716 11.2492C49.5065 11.2492 51.7989 13.5517 51.7989 16.3992V24.1418C51.7989 25.6358 51.2127 27.0683 50.1627 28.1229L43.2155 35.1009L41.9643 42.6501C41.7106 44.1793 40.2669 45.2163 38.7445 44.9615C37.2221 44.7066 36.1896 43.2565 36.4434 41.7273L37.7733 33.7387C37.9133 32.8686 38.3245 32.0689 38.9457 31.4449L43.408 26.9628V21.2416L41.7456 23.7463C41.3431 24.3615 40.7831 24.8536 40.1269 25.1788L34.9122 27.7977C34.7022 27.912 34.4834 27.9911 34.2472 28.0438C34.0197 28.0965 33.7835 28.1229 33.556 28.1141H22.4703C22.2515 28.1229 22.0328 28.0965 21.814 28.0526C21.5603 27.9999 21.3241 27.912 21.1053 27.7889L15.8993 25.17C15.2431 24.8448 14.6919 24.3439 14.2806 23.7375L12.6182 21.2328L12.6007 21.2416ZM0.202551 41.1385L4.38485 30.6364L8.68965 34.9603L5.39981 43.2214C4.82233 44.6627 3.19491 45.3657 1.75998 44.7857C0.325045 44.2057 -0.374922 42.5798 0.202551 41.1385ZM44.7992 0C45.9131 0 46.9813 0.444441 47.7689 1.23555C48.5565 2.02666 48.999 3.09964 48.999 4.21843C48.999 5.33723 48.5565 6.41021 47.7689 7.20132C46.9813 7.99243 45.9131 8.43687 44.7992 8.43687C43.6854 8.43687 42.6171 7.99243 41.8295 7.20132C41.0419 6.41021 40.5994 5.33723 40.5994 4.21843C40.5994 3.09964 41.0419 2.02666 41.8295 1.23555C42.6171 0.444441 43.6854 0 44.7992 0ZM51.6151 30.6364L55.7974 41.1385C56.3749 42.5798 55.675 44.2145 54.24 44.7945C52.8051 45.3745 51.1777 44.6715 50.6002 43.2302L47.3103 34.9691L51.6151 30.6452V30.6364Z" fill="black" fill-opacity="0.63"/>
</svg>
