<svg width="55" height="55" viewBox="0 0 55 55" fill="none" xmlns="http://www.w3.org/2000/svg">
<path d="M41.6423 13.3687C39.8127 11.5329 37.6413 10.0731 35.2507 9.07182C32.7987 8.04164 30.1651 7.51382 27.5055 7.51958H27.4142C22.0592 7.54106 17.048 9.63579 13.299 13.4224C9.5446 17.209 7.49821 22.2364 7.5197 27.5914C7.53581 30.8301 8.34148 34.0474 9.85612 36.8887L10.0978 37.3399V44.9024H17.6603L18.1115 45.1441C20.9528 46.6587 24.1701 47.4644 27.4089 47.4805H27.5002C32.8176 47.4805 37.8127 45.4288 41.5778 41.7012C45.3591 37.9522 47.4592 32.941 47.4914 27.5914C47.5021 24.8736 46.9811 22.2417 45.9391 19.7603C44.9371 17.3701 43.4774 15.1988 41.6423 13.3687ZM16.758 30.0782C16.0833 30.0644 15.441 29.7867 14.9687 29.3047C14.4965 28.8227 14.2319 28.1748 14.2319 27.5C14.2319 26.8253 14.4965 26.1774 14.9687 25.6954C15.441 25.2134 16.0833 24.9357 16.758 24.9219C17.4326 24.9357 18.075 25.2134 18.5473 25.6954C19.0195 26.1774 19.284 26.8253 19.284 27.5C19.284 28.1748 19.0195 28.8227 18.5473 29.3047C18.075 29.7867 17.4326 30.0644 16.758 30.0782ZM27.5002 30.0782C26.8255 30.0644 26.1831 29.7867 25.7109 29.3047C25.2386 28.8227 24.9741 28.1748 24.9741 27.5C24.9741 26.8253 25.2386 26.1774 25.7109 25.6954C26.1831 25.2134 26.8255 24.9357 27.5002 24.9219C28.1748 24.9357 28.8172 25.2134 29.2894 25.6954C29.7617 26.1774 30.0262 26.8253 30.0262 27.5C30.0262 28.1748 29.7617 28.8227 29.2894 29.3047C28.8172 29.7867 28.1748 30.0644 27.5002 30.0782ZM38.2424 30.0782C37.5677 30.0644 36.9253 29.7867 36.4531 29.3047C35.9808 28.8227 35.7163 28.1748 35.7163 27.5C35.7163 26.8253 35.9808 26.1774 36.4531 25.6954C36.9253 25.2134 37.5677 24.9357 38.2424 24.9219C38.917 24.9357 39.5594 25.2134 40.0316 25.6954C40.5039 26.1774 40.7684 26.8253 40.7684 27.5C40.7684 28.1748 40.5039 28.8227 40.0316 29.3047C39.5594 29.7867 38.917 30.0644 38.2424 30.0782Z" fill="#D9D9D9"/>
<path d="M35.6641 27.5C35.6641 28.1838 35.9357 28.8395 36.4192 29.323C36.9027 29.8065 37.5584 30.0781 38.2422 30.0781C38.9259 30.0781 39.5817 29.8065 40.0652 29.323C40.5487 28.8395 40.8203 28.1838 40.8203 27.5C40.8203 26.8162 40.5487 26.1605 40.0652 25.677C39.5817 25.1935 38.9259 24.9219 38.2422 24.9219C37.5584 24.9219 36.9027 25.1935 36.4192 25.677C35.9357 26.1605 35.6641 26.8162 35.6641 27.5ZM14.1797 27.5C14.1797 28.1838 14.4513 28.8395 14.9348 29.323C15.4183 29.8065 16.0741 30.0781 16.7578 30.0781C17.4416 30.0781 18.0973 29.8065 18.5808 29.323C19.0643 28.8395 19.3359 28.1838 19.3359 27.5C19.3359 26.8162 19.0643 26.1605 18.5808 25.677C18.0973 25.1935 17.4416 24.9219 16.7578 24.9219C16.0741 24.9219 15.4183 25.1935 14.9348 25.677C14.4513 26.1605 14.1797 26.8162 14.1797 27.5Z" fill="black"/>
<path d="M50.2562 18.7383C49.0423 15.854 47.3021 13.2651 45.0838 11.0415C42.881 8.8308 40.2661 7.07352 37.387 5.86914C34.4329 4.62842 31.2962 4 28.0628 4H27.9554C24.7005 4.01611 21.5477 4.66064 18.5828 5.92822C15.7284 7.14495 13.138 8.90535 10.9559 11.1113C8.75909 13.3296 7.03497 15.9077 5.84259 18.7813C4.60724 21.7568 3.98419 24.9204 4.0003 28.1753C4.01853 31.9054 4.90099 35.5805 6.57843 38.9121V47.0762C6.57843 47.7314 6.83874 48.3599 7.30208 48.8232C7.76543 49.2866 8.39386 49.5469 9.04913 49.5469H17.2186C20.5502 51.2243 24.2253 52.1068 27.9554 52.125H28.0682C31.2855 52.125 34.4061 51.502 37.3441 50.2827C40.2086 49.0927 42.8138 47.3559 45.014 45.1694C47.2322 42.9727 48.9778 40.4053 50.1971 37.5425C51.4647 34.5776 52.1092 31.4248 52.1253 28.1699C52.1414 24.8989 51.5076 21.7246 50.2562 18.7383ZM42.1404 42.2637C38.3753 45.9912 33.3802 48.043 28.0628 48.043H27.9715C24.7327 48.0269 21.5154 47.2212 18.6741 45.7065L18.223 45.4648H10.6605V37.9023L10.4188 37.4512C8.90411 34.6099 8.09845 31.3926 8.08234 28.1538C8.06085 22.7988 10.1072 17.7715 13.8616 13.9849C17.6107 10.1982 22.6219 8.10352 27.9769 8.08203H28.0682C30.7537 8.08203 33.3587 8.60303 35.8133 9.63428C38.2088 10.6387 40.3572 12.0835 42.2049 13.9312C44.0472 15.7734 45.4974 17.9272 46.5018 20.3228C47.5438 22.8042 48.0648 25.436 48.054 28.1538C48.0218 33.5034 45.9217 38.5146 42.1404 42.2637Z" fill="black"/>
<path d="M24.9219 27.5C24.9219 28.1838 25.1935 28.8395 25.677 29.323C26.1605 29.8065 26.8162 30.0781 27.5 30.0781C28.1838 30.0781 28.8395 29.8065 29.323 29.323C29.8065 28.8395 30.0781 28.1838 30.0781 27.5C30.0781 26.8162 29.8065 26.1605 29.323 25.677C28.8395 25.1935 28.1838 24.9219 27.5 24.9219C26.8162 24.9219 26.1605 25.1935 25.677 25.677C25.1935 26.1605 24.9219 26.8162 24.9219 27.5Z" fill="black"/>
</svg>
