<svg width="82" height="82" viewBox="0 0 82 82" fill="none" xmlns="http://www.w3.org/2000/svg">
<path d="M6.83398 30.7497C6.83398 24.3058 6.83398 21.0873 8.83615 19.0852C10.8383 17.083 14.0568 17.083 20.5007 17.083H61.5007C67.9445 17.083 71.163 17.083 73.1652 19.0852C75.1673 21.0873 75.1673 24.3058 75.1673 30.7497C75.1673 32.3589 75.1673 33.1653 74.6685 33.6675C74.1662 34.1663 73.3565 34.1663 71.7507 34.1663H10.2507C8.6414 34.1663 7.83507 34.1663 7.33282 33.6675C6.83398 33.1653 6.83398 32.3555 6.83398 30.7497ZM6.83398 61.4997C6.83398 67.9435 6.83398 71.162 8.83615 73.1642C10.8383 75.1663 14.0568 75.1663 20.5007 75.1663H61.5007C67.9445 75.1663 71.163 75.1663 73.1652 73.1642C75.1673 71.162 75.1673 67.9435 75.1673 61.4997V44.4163C75.1673 42.8071 75.1673 42.0008 74.6685 41.4985C74.1662 40.9997 73.3565 40.9997 71.7507 40.9997H10.2507C8.6414 40.9997 7.83507 40.9997 7.33282 41.4985C6.83398 42.0008 6.83398 42.8105 6.83398 44.4163V61.4997Z" fill="#F5A524"/>
<path d="M23.918 10.25V20.5V10.25ZM58.0846 10.25V20.5V10.25Z" fill="#F5A524"/>
<path d="M23.918 10.25V20.5M58.0846 10.25V20.5" stroke="#F5A524" stroke-width="2" stroke-linecap="round"/>
</svg>
