<svg width="63" height="63" viewBox="0 0 63 63" fill="none" xmlns="http://www.w3.org/2000/svg">
<path d="M56.438 10.5H50.7505V14H56.0005V52.5H7.00045V14H12.2505V10.5H6.56295C6.15386 10.5068 5.75013 10.5942 5.37482 10.7571C4.9995 10.92 4.65995 11.1552 4.37556 11.4494C4.09117 11.7435 3.86751 12.0908 3.71735 12.4714C3.5672 12.852 3.4935 13.2584 3.50045 13.6675V52.8325C3.4935 53.2416 3.5672 53.648 3.71735 54.0286C3.86751 54.4092 4.09117 54.7565 4.37556 55.0506C4.65995 55.3448 4.9995 55.58 5.37482 55.7429C5.75013 55.9058 6.15386 55.9932 6.56295 56H56.438C56.847 55.9932 57.2508 55.9058 57.6261 55.7429C58.0014 55.58 58.341 55.3448 58.6253 55.0506C58.9097 54.7565 59.1334 54.4092 59.2835 54.0286C59.4337 53.648 59.5074 53.2416 59.5004 52.8325V13.6675C59.5074 13.2584 59.4337 12.852 59.2835 12.4714C59.1334 12.0908 58.9097 11.7435 58.6253 11.4494C58.341 11.1552 58.0014 10.92 57.6261 10.7571C57.2508 10.5942 56.847 10.5068 56.438 10.5Z" fill="#B8B8B8"/>
<path d="M14 24.5H17.5V28H14V24.5Z" fill="#B8B8B8"/>
<path d="M24.5 24.5H28V28H24.5V24.5Z" fill="#B8B8B8"/>
<path d="M35 24.5H38.5V28H35V24.5Z" fill="#B8B8B8"/>
<path d="M45.5 24.5H49V28H45.5V24.5Z" fill="#B8B8B8"/>
<path d="M14 33.25H17.5V36.75H14V33.25Z" fill="#B8B8B8"/>
<path d="M24.5 33.25H28V36.75H24.5V33.25Z" fill="#B8B8B8"/>
<path d="M35 33.25H38.5V36.75H35V33.25Z" fill="#B8B8B8"/>
<path d="M45.5 33.25H49V36.75H45.5V33.25Z" fill="#B8B8B8"/>
<path d="M14 42H17.5V45.5H14V42Z" fill="#B8B8B8"/>
<path d="M24.5 42H28V45.5H24.5V42Z" fill="#B8B8B8"/>
<path d="M35 42H38.5V45.5H35V42Z" fill="#B8B8B8"/>
<path d="M45.5 42H49V45.5H45.5V42Z" fill="#B8B8B8"/>
<path d="M17.5 17.5C17.9641 17.5 18.4092 17.3156 18.7374 16.9874C19.0656 16.6592 19.25 16.2141 19.25 15.75V5.25C19.25 4.78587 19.0656 4.34075 18.7374 4.01256C18.4092 3.68437 17.9641 3.5 17.5 3.5C17.0359 3.5 16.5908 3.68437 16.2626 4.01256C15.9344 4.34075 15.75 4.78587 15.75 5.25V15.75C15.75 16.2141 15.9344 16.6592 16.2626 16.9874C16.5908 17.3156 17.0359 17.5 17.5 17.5Z" fill="#B8B8B8"/>
<path d="M45.5 17.5C45.9641 17.5 46.4092 17.3156 46.7374 16.9874C47.0656 16.6592 47.25 16.2141 47.25 15.75V5.25C47.25 4.78587 47.0656 4.34075 46.7374 4.01256C46.4092 3.68437 45.9641 3.5 45.5 3.5C45.0359 3.5 44.5908 3.68437 44.2626 4.01256C43.9344 4.34075 43.75 4.78587 43.75 5.25V15.75C43.75 16.2141 43.9344 16.6592 44.2626 16.9874C44.5908 17.3156 45.0359 17.5 45.5 17.5Z" fill="#B8B8B8"/>
<path d="M22.75 10.5H40.25V14H22.75V10.5Z" fill="#B8B8B8"/>
</svg>
