<svg width="104" height="104" viewBox="0 0 104 104" fill="none" xmlns="http://www.w3.org/2000/svg">
<path d="M86.6663 26H76.9163C76.629 26 76.3535 25.8859 76.1503 25.6827C75.9471 25.4795 75.833 25.204 75.833 24.9167V6.5C75.833 4.77609 75.1482 3.12279 73.9292 1.90381C72.7102 0.684819 71.0569 0 69.333 0C67.6091 0 65.9558 0.684819 64.7368 1.90381C63.5178 3.12279 62.833 4.77609 62.833 6.5V24.9167C62.833 25.204 62.7189 25.4795 62.5157 25.6827C62.3125 25.8859 62.037 26 61.7497 26H42.2497C41.9624 26 41.6868 25.8859 41.4836 25.6827C41.2805 25.4795 41.1663 25.204 41.1663 24.9167V6.5C41.1663 4.77609 40.4815 3.12279 39.2625 1.90381C38.0436 0.684819 36.3902 0 34.6663 0C32.9424 0 31.2891 0.684819 30.0701 1.90381C28.8512 3.12279 28.1663 4.77609 28.1663 6.5V24.9167C28.1663 25.204 28.0522 25.4795 27.849 25.6827C27.6459 25.8859 27.3703 26 27.083 26H17.333C15.6091 26 13.9558 26.6848 12.7368 27.9038C11.5178 29.1228 10.833 30.7761 10.833 32.5C10.833 34.2239 11.5178 35.8772 12.7368 37.0962C13.9558 38.3152 15.6091 39 17.333 39H86.6663C88.3903 39 90.0435 38.3152 91.2625 37.0962C92.4815 35.8772 93.1663 34.2239 93.1663 32.5C93.1663 30.7761 92.4815 29.1228 91.2625 27.9038C90.0435 26.6848 88.3903 26 86.6663 26ZM77.9997 45.5H25.9997C25.425 45.5 24.8739 45.7283 24.4676 46.1346C24.0613 46.5409 23.833 47.092 23.833 47.6667V58.5C23.8486 63.1232 25.5099 67.5899 28.5193 71.0995C31.5288 74.6092 35.6896 76.9326 40.2563 77.6533C40.509 77.7028 40.737 77.8372 40.9026 78.0344C41.0682 78.2315 41.1612 78.4793 41.1663 78.7367V84.5C41.16 86.0748 41.7217 87.599 42.7486 88.793C43.7754 89.987 45.1984 90.7706 46.7563 91C47.0091 91.0318 47.2413 91.1553 47.4091 91.347C47.5768 91.5387 47.6683 91.7853 47.6663 92.04V99.6667C47.6663 100.816 48.1229 101.918 48.9355 102.731C49.7482 103.543 50.8504 104 51.9997 104C53.1489 104 54.2511 103.543 55.0638 102.731C55.8765 101.918 56.333 100.816 56.333 99.6667V91.9967C56.331 91.742 56.4226 91.4954 56.5903 91.3037C56.758 91.112 56.9903 90.9885 57.243 90.9567C58.7936 90.7283 60.2107 89.951 61.2366 88.7661C62.2625 87.5811 62.829 86.0673 62.833 84.5V78.7367C62.8381 78.4793 62.9312 78.2315 63.0968 78.0344C63.2623 77.8372 63.4904 77.7028 63.743 77.6533C68.3097 76.9326 72.4706 74.6092 75.48 71.0995C78.4895 67.5899 80.1508 63.1232 80.1663 58.5V47.6667C80.1663 47.092 79.9381 46.5409 79.5317 46.1346C79.1254 45.7283 78.5743 45.5 77.9997 45.5Z" fill="black"/>
</svg>
