<svg width="60" height="60" viewBox="0 0 60 60" fill="none" xmlns="http://www.w3.org/2000/svg">
<path d="M12.5 47.125C14.75 44.9167 17.365 43.1775 20.345 41.9075C23.325 40.6375 26.5433 40.0017 30 40C33.4567 39.9983 36.6758 40.6342 39.6575 41.9075C42.6392 43.1808 45.2533 44.92 47.5 47.125V15H12.5V47.125ZM23.8125 32.4375C22.1042 30.7292 21.25 28.6667 21.25 26.25C21.25 23.8333 22.1042 21.7708 23.8125 20.0625C25.5208 18.3542 27.5833 17.5 30 17.5C32.4167 17.5 34.4792 18.3542 36.1875 20.0625C37.8958 21.7708 38.75 23.8333 38.75 26.25C38.75 28.6667 37.8958 30.7292 36.1875 32.4375C34.4792 34.1458 32.4167 35 30 35C27.5833 35 25.5208 34.1458 23.8125 32.4375ZM7.5 55V10H15V5H20V10H40V5H45V10H52.5V55H7.5Z" fill="black" fill-opacity="0.68"/>
</svg>
