<svg width="21" height="17" viewBox="0 0 21 17" fill="none" xmlns="http://www.w3.org/2000/svg">
<path d="M2.1 17C1.5225 17 1.02812 16.7919 0.616875 16.3758C0.205625 15.9596 0 15.4594 0 14.875V2.125C0 1.54062 0.205625 1.04036 0.616875 0.624219C1.02812 0.208073 1.5225 0 2.1 0H18.9C19.4775 0 19.9719 0.208073 20.3831 0.624219C20.7944 1.04036 21 1.54062 21 2.125V14.875C21 15.4594 20.7944 15.9596 20.3831 16.3758C19.9719 16.7919 19.4775 17 18.9 17H2.1ZM10.5 9.5625L2.1 4.25V14.875H18.9V4.25L10.5 9.5625ZM10.5 7.4375L18.9 2.125H2.1L10.5 7.4375Z" fill="black"/>
</svg>
