<svg width="68" height="68" viewBox="0 0 68 68" fill="none" xmlns="http://www.w3.org/2000/svg">
<path d="M11.334 14.1663C11.334 13.7896 11.4092 13.4166 11.5552 13.0692C11.7011 12.7219 11.9149 12.4071 12.184 12.1433C15.2719 9.11632 19.3972 7.37975 23.7203 7.28711C28.0435 7.19447 32.2394 8.75271 35.4541 11.6447L36.4487 12.574C38.5154 14.3848 41.1696 15.3831 43.9173 15.3831C46.6651 15.3831 49.3193 14.3848 51.386 12.574L52.0915 11.9308C53.8198 10.5623 56.418 11.656 56.6532 13.8462L56.6673 14.1663V39.6663C56.6673 40.0431 56.5921 40.4161 56.4461 40.7635C56.3002 41.1108 56.0864 41.4256 55.8173 41.6893C52.7294 44.7164 48.6041 46.4529 44.281 46.5456C39.9578 46.6382 35.7619 45.08 32.5472 42.188L31.5527 41.2587C29.551 39.5049 26.996 38.5114 24.3354 38.4523C21.6747 38.3933 19.0781 39.2724 17.0007 40.9357V59.4997C16.9998 60.2218 16.7233 60.9164 16.2276 61.4416C15.7318 61.9667 15.0543 62.2827 14.3334 62.325C13.6124 62.3673 12.9026 62.1328 12.3488 61.6693C11.795 61.2058 11.4391 60.5483 11.3538 59.8312L11.334 59.4997V14.1663Z" fill="#F5A524"/>
</svg>
