<svg width="365" height="675" viewBox="0 0 365 675" fill="none" xmlns="http://www.w3.org/2000/svg">
<path d="M0 17.9159C0 8.02122 8.02122 0 17.9159 0H364.694V149.49C364.694 173.686 345.29 193.411 321.097 193.808L45.0489 198.328C20.2893 198.733 0 178.774 0 154.011V17.9159Z" fill="#F5A524"/>
<path d="M0 279.159H318.816C344.154 279.159 364.694 299.7 364.694 325.038V674.958H13.9968C6.26659 674.958 0 668.691 0 660.961V279.159Z" fill="#F5A524"/>
<rect y="147.744" width="301.709" height="191.29" fill="#F5A524"/>
<path d="M270.503 228.105C272.135 236.411 271.486 245.078 268.643 252.96C265.799 260.841 260.895 267.565 254.58 272.242C248.264 276.919 240.835 279.328 233.276 279.15C225.717 278.972 218.384 276.215 212.248 271.245C206.112 266.275 201.463 259.325 198.915 251.317C196.368 243.308 196.042 234.618 197.982 226.396C199.922 218.175 204.035 210.81 209.778 205.277C215.52 199.744 222.651 194.516 230.17 193.623L234.058 237.169L270.503 228.105Z" fill="white"/>
<path d="M228.615 194.401C228.615 193.971 228.963 193.623 229.392 193.623H364.695V279.159H233.28C230.704 279.159 228.615 277.07 228.615 274.493V194.401Z" fill="white"/>
</svg>
