<svg width="385" height="675" viewBox="0 0 385 675" fill="none" xmlns="http://www.w3.org/2000/svg">
<path d="M0 25.7541V18.6624C0 8.35545 8.35544 0 18.6624 0H364.694V234.28C364.694 258.353 345.48 278.024 321.414 278.591L45.3662 285.089C20.4857 285.675 0 265.665 0 240.778V25.7541Z" fill="#F5A524"/>
<path d="M0 364.695H318.816C344.154 364.695 364.694 385.235 364.694 410.573V674.957H13.9968C6.26659 674.957 0 668.691 0 660.96V364.695Z" fill="#F5A524"/>
<rect y="147.744" width="301.709" height="229.392" fill="#F5A524"/>
<path d="M289.943 313.641C291.575 321.946 290.926 330.614 288.083 338.495C285.239 346.377 280.335 353.101 274.02 357.778C267.704 362.455 260.275 364.864 252.716 364.685C245.157 364.507 237.824 361.751 231.688 356.781C225.552 351.81 220.903 344.861 218.355 336.852C215.808 328.844 215.482 320.153 217.422 311.932C219.362 303.711 223.475 296.346 229.217 290.813C234.96 285.279 242.091 280.052 249.61 279.159L253.498 322.704L289.943 313.641Z" fill="white"/>
<path d="M248.055 279.936C248.055 279.507 248.403 279.159 248.832 279.159H384.135V364.695H252.72C250.144 364.695 248.055 362.606 248.055 360.029V279.936Z" fill="white"/>
</svg>
