<svg width="39" height="39" viewBox="0 0 39 39" fill="none" xmlns="http://www.w3.org/2000/svg">
<path opacity="0.7" d="M13 4.875C13.8125 4.875 17.0625 12.1875 17.0625 13C17.0625 14.625 14.625 16.25 13.8125 17.875C13 19.5 14.625 21.125 16.25 22.75C16.8837 23.3838 19.5 26 21.125 25.1875C22.75 24.375 24.375 21.9375 26 21.9375C26.8125 21.9375 34.125 25.1875 34.125 26C34.125 29.25 31.6875 31.6875 29.25 32.5C26.8125 33.3125 25.1875 33.3125 21.9375 32.5C18.6875 31.6875 16.25 30.875 12.1875 26.8125C8.125 22.75 7.3125 20.3125 6.5 17.0625C5.6875 13.8125 5.6875 12.1875 6.5 9.75C7.3125 7.3125 9.75 4.875 13 4.875Z" fill="#B8B8B8" fill-opacity="0.68"/>
</svg>
