<svg width="13" height="16" viewBox="0 0 13 16" fill="none" xmlns="http://www.w3.org/2000/svg">
<path d="M5.03979 14.7411C5.46904 15.0953 5.91671 15.419 6.375 15.7349C6.83428 15.4232 7.27977 15.0916 7.71021 14.7411C8.42775 14.1519 9.10304 13.5131 9.73108 12.8293C11.1789 11.2462 12.75 8.95121 12.75 6.375C12.75 5.53782 12.5851 4.70884 12.2647 3.93539C11.9444 3.16194 11.4748 2.45917 10.8828 1.86719C10.2908 1.27522 9.58806 0.805642 8.81461 0.485268C8.04116 0.164894 7.21218 0 6.375 0C5.53782 0 4.70884 0.164894 3.93539 0.485268C3.16194 0.805642 2.45917 1.27522 1.86719 1.86719C1.27522 2.45917 0.805642 3.16194 0.485268 3.93539C0.164894 4.70884 -1.24749e-08 5.53782 0 6.375C0 8.95121 1.57108 11.2455 3.01892 12.8293C3.64694 13.5134 4.32223 14.1517 5.03979 14.7411ZM6.375 8.67708C5.76445 8.67708 5.17891 8.43454 4.74718 8.00282C4.31546 7.57109 4.07292 6.98555 4.07292 6.375C4.07292 5.76445 4.31546 5.17891 4.74718 4.74718C5.17891 4.31546 5.76445 4.07292 6.375 4.07292C6.98555 4.07292 7.57109 4.31546 8.00282 4.74718C8.43454 5.17891 8.67708 5.76445 8.67708 6.375C8.67708 6.98555 8.43454 7.57109 8.00282 8.00282C7.57109 8.43454 6.98555 8.67708 6.375 8.67708Z" fill="black"/>
</svg>
