<svg width="45" height="46" viewBox="0 0 45 46" fill="none" xmlns="http://www.w3.org/2000/svg">
<path d="M22.5939 0C28.5877 0.00303101 34.2134 2.36953 38.4435 6.66519C42.6739 10.9607 45.0023 16.6711 45 22.7427C44.9951 35.1483 35.1429 45.2645 22.9641 45.4657L22.5944 45.4687H22.5851C18.8928 45.4674 15.2638 44.5426 12.0292 42.7862L11.8781 42.7032L0 45.8632L3.17865 34.086C1.21816 30.6403 0.186504 26.7303 0.188086 22.7245C0.193008 10.1945 10.2444 0 22.5939 0ZM22.6016 3.83868C12.3295 3.83868 3.97512 12.3118 3.97107 22.7265C3.96967 26.241 4.92451 29.6659 6.73418 32.6418L6.8182 32.7789L7.26117 33.4937L5.37979 40.4638L12.4281 38.5886L13.1082 38.9977C15.9219 40.6913 19.141 41.6006 22.4276 41.63L22.5867 41.6307H22.5944C32.8586 41.6307 41.2128 33.1571 41.217 22.7417C41.2188 17.6945 39.2838 12.9485 35.7676 9.37812C32.2515 5.80777 27.5757 3.84029 22.6016 3.8385M14.6616 12.2296C15.0346 12.2296 15.4086 12.2331 15.7345 12.2501C16.0784 12.2672 16.5398 12.1176 16.994 13.2246C17.1684 13.649 17.4335 14.3046 17.7049 14.9742L17.763 15.1178C18.1999 16.1956 18.6365 17.2701 18.7205 17.4408C18.8603 17.7248 18.9534 18.0568 18.7669 18.4355C18.5806 18.8147 18.4869 19.0513 18.2072 19.3833C17.9272 19.7146 17.6194 20.1238 17.3675 20.378L17.3264 20.4195L17.2856 20.4618C17.036 20.7237 16.8272 21.024 17.1221 21.5364C17.4486 22.1051 18.572 23.9651 20.2363 25.4706C22.3747 27.4051 24.1787 28.0049 24.7386 28.2893C25.2984 28.5737 25.625 28.5261 25.9515 28.1467C26.2782 27.768 27.3509 26.4889 27.7242 25.9203C28.0974 25.3519 28.4706 25.4469 28.9839 25.6363C29.2277 25.7263 29.9777 26.084 30.7579 26.4652L31.0004 26.5839C31.7814 26.9672 32.5431 27.3484 32.8092 27.4836C33.3691 27.768 33.7424 27.9101 33.8822 28.1467C34.0221 28.3838 34.0221 29.5204 33.5556 30.8469C33.0891 32.1734 30.8524 33.3841 29.7768 33.5474C28.8123 33.6932 27.5919 33.7542 26.2506 33.3224C25.4378 33.0603 24.3947 32.711 23.059 32.126C17.4431 29.6666 13.7751 23.9305 13.4954 23.5518L13.4764 23.5261C13.1353 23.0637 11.2092 20.4158 11.2092 17.6774C11.2092 14.8826 12.6557 13.5088 13.1687 12.9403C13.6819 12.3722 14.2884 12.2296 14.6616 12.2296Z" fill="#43A047" fill-opacity="0.79"/>
</svg>
