<svg width="46" height="58" viewBox="0 0 46 58" fill="none" xmlns="http://www.w3.org/2000/svg">
<path fill-rule="evenodd" clip-rule="evenodd" d="M0.0813572 21.2157C0.544789 15.4344 3.09655 10.0441 7.23041 6.11416C11.3643 2.18426 16.7782 0.00188825 22.3981 0H23.6017C29.2216 0.00188825 34.6355 2.18426 38.7693 6.11416C42.9032 10.0441 45.455 15.4344 45.9184 21.2157C46.4327 27.6704 44.5022 34.0795 40.5328 39.0953L27.179 55.9539C26.6729 56.5934 26.0354 57.1087 25.3126 57.4626C24.5898 57.8164 23.7998 58 22.9999 58C22.1999 58 21.41 57.8164 20.6872 57.4626C19.9644 57.1087 19.3269 56.5934 18.8207 55.9539L5.46969 39.0953C1.49938 34.0799 -0.432132 27.6708 0.0813572 21.2157ZM22.9999 10.7847C19.49 10.7847 16.1239 12.2239 13.642 14.7858C11.1602 17.3477 9.76587 20.8223 9.76587 24.4453C9.76587 28.0684 11.1602 31.543 13.642 34.1049C16.1239 36.6667 19.49 38.106 22.9999 38.106C26.5098 38.106 29.8759 36.6667 32.3577 34.1049C34.8396 31.543 36.2339 28.0684 36.2339 24.4453C36.2339 20.8223 34.8396 17.3477 32.3577 14.7858C29.8759 12.2239 26.5098 10.7847 22.9999 10.7847Z" fill="#F5A524"/>
</svg>
