<svg width="15" height="15" viewBox="0 0 15 15" fill="none" xmlns="http://www.w3.org/2000/svg">
<path d="M3.64583 0C4.0625 0 5.72917 3.75 5.72917 4.16667C5.72917 5 4.47917 5.83333 4.0625 6.66667C3.64583 7.5 4.47917 8.33333 5.3125 9.16667C5.6375 9.49167 6.97917 10.8333 7.8125 10.4167C8.64583 10 9.47917 8.75 10.3125 8.75C10.7292 8.75 14.4792 10.4167 14.4792 10.8333C14.4792 12.5 13.2292 13.75 11.9792 14.1667C10.7292 14.5833 9.89583 14.5833 8.22917 14.1667C6.5625 13.75 5.3125 13.3333 3.22917 11.25C1.14583 9.16667 0.729167 7.91667 0.3125 6.25C-0.104167 4.58333 -0.104167 3.75 0.3125 2.5C0.729167 1.25 1.97917 0 3.64583 0Z" fill="black"/>
</svg>
