<svg width="106" height="103" viewBox="0 0 106 103" fill="none" xmlns="http://www.w3.org/2000/svg">
<path d="M9.83667 75.3673C10.3153 80.0707 12.3631 84.6602 16.0888 88.1754C22.6264 94.3435 32.1709 95.2965 39.669 91.2362L37.3857 87.0091C34.523 88.5605 31.2436 89.1688 28.0149 88.747C24.7863 88.3253 21.7731 86.8952 19.405 84.6605C16.6634 82.0739 15.1159 78.7005 14.7003 75.2258L24.5917 74.9382L11.9383 62.9999L8.01584e-07 75.6533L9.83667 75.3673Z" fill="black"/>
<path d="M83.7123 39.1539C83.173 34.457 81.0661 29.8944 77.2952 26.4277C70.6785 20.3446 61.1224 19.5149 53.6774 23.6718L56.0152 27.8691C58.8576 26.2807 62.1288 25.6302 65.3627 26.0101C68.5965 26.3901 71.6279 27.7812 74.0247 29.9851C76.7995 32.536 78.3905 35.8892 78.8509 39.3582L68.9641 39.7736L81.7707 51.5474L93.5445 38.7408L83.7123 39.1539Z" fill="black"/>
<path d="M29.543 21.8905C29.3976 21.7515 29.2042 21.6738 29.003 21.6738C28.8018 21.6738 28.6083 21.7515 28.4629 21.8905L10.4844 39.0653C10.4081 39.1384 10.3473 39.2261 10.3059 39.3233C10.2644 39.4205 10.2431 39.5251 10.2432 39.6308L10.2403 55.7499C10.2403 56.5787 10.5695 57.3736 11.1556 57.9596C11.7416 58.5457 12.5365 58.8749 13.3653 58.8749H22.75C23.1644 58.8749 23.5619 58.7103 23.8549 58.4173C24.1479 58.1242 24.3125 57.7268 24.3125 57.3124V44.0312C24.3125 43.824 24.3949 43.6252 24.5414 43.4787C24.6879 43.3322 24.8866 43.2499 25.0938 43.2499H32.9063C33.1135 43.2499 33.3122 43.3322 33.4587 43.4787C33.6052 43.6252 33.6875 43.824 33.6875 44.0312V57.3124C33.6875 57.7268 33.8522 58.1242 34.1452 58.4173C34.4382 58.7103 34.8356 58.8749 35.25 58.8749H44.6309C45.4597 58.8749 46.2546 58.5457 46.8406 57.9596C47.4267 57.3736 47.7559 56.5787 47.7559 55.7499V39.6308C47.756 39.5251 47.7347 39.4205 47.6932 39.3233C47.6518 39.2261 47.591 39.1384 47.5147 39.0653L29.543 21.8905Z" fill="black"/>
<path d="M51.9405 35.8428L44.6358 28.8545V18.25C44.6358 17.8356 44.4712 17.4382 44.1781 17.1451C43.8851 16.8521 43.4877 16.6875 43.0733 16.6875H38.3858C37.9714 16.6875 37.574 16.8521 37.2809 17.1451C36.9879 17.4382 36.8233 17.8356 36.8233 18.25V21.375L31.167 15.9668C30.6377 15.4316 29.8506 15.125 29 15.125C28.1524 15.125 27.3672 15.4316 26.8379 15.9678L6.06645 35.8408C5.45903 36.4268 5.38285 37.3906 5.93559 38.0254C6.07439 38.1856 6.24434 38.3159 6.4351 38.4084C6.62586 38.5008 6.83344 38.5535 7.0452 38.5632C7.25696 38.5729 7.46848 38.5394 7.66688 38.4647C7.86528 38.39 8.04642 38.2758 8.19926 38.1289L28.4629 18.7656C28.6083 18.6265 28.8018 18.5489 29.003 18.5489C29.2042 18.5489 29.3976 18.6265 29.543 18.7656L49.8086 38.1289C50.1072 38.4152 50.507 38.5714 50.9205 38.5634C51.3341 38.5553 51.7275 38.3836 52.0147 38.0859C52.6143 37.4648 52.5645 36.4395 51.9405 35.8428Z" fill="black"/>
<path d="M70.543 60.8905C70.3976 60.7515 70.2042 60.6738 70.003 60.6738C69.8018 60.6738 69.6083 60.7515 69.4629 60.8905L51.4844 78.0653C51.4081 78.1384 51.3473 78.2261 51.3059 78.3233C51.2644 78.4205 51.2431 78.5251 51.2432 78.6308L51.2403 94.7499C51.2403 95.5787 51.5695 96.3736 52.1556 96.9596C52.7416 97.5457 53.5365 97.8749 54.3653 97.8749H63.75C64.1644 97.8749 64.5619 97.7103 64.8549 97.4173C65.1479 97.1242 65.3125 96.7268 65.3125 96.3124V83.0312C65.3125 82.824 65.3949 82.6252 65.5414 82.4787C65.6879 82.3322 65.8866 82.2499 66.0938 82.2499H73.9063C74.1135 82.2499 74.3122 82.3322 74.4587 82.4787C74.6052 82.6252 74.6875 82.824 74.6875 83.0312V96.3124C74.6875 96.7268 74.8522 97.1242 75.1452 97.4173C75.4382 97.7103 75.8356 97.8749 76.25 97.8749H85.6309C86.4597 97.8749 87.2546 97.5457 87.8406 96.9596C88.4267 96.3736 88.7559 95.5787 88.7559 94.7499V78.6308C88.756 78.5251 88.7347 78.4205 88.6932 78.3233C88.6518 78.2261 88.591 78.1384 88.5147 78.0653L70.543 60.8905Z" fill="black"/>
<path d="M92.9405 74.8428L85.6358 67.8545V57.25C85.6358 56.8356 85.4712 56.4382 85.1781 56.1451C84.8851 55.8521 84.4877 55.6875 84.0733 55.6875H79.3858C78.9714 55.6875 78.574 55.8521 78.2809 56.1451C77.9879 56.4382 77.8233 56.8356 77.8233 57.25V60.375L72.167 54.9668C71.6377 54.4316 70.8506 54.125 70 54.125C69.1524 54.125 68.3672 54.4316 67.8379 54.9678L47.0664 74.8408C46.459 75.4268 46.3829 76.3906 46.9356 77.0254C47.0744 77.1856 47.2443 77.3159 47.4351 77.4084C47.6259 77.5008 47.8334 77.5535 48.0452 77.5632C48.257 77.5729 48.4685 77.5394 48.6669 77.4647C48.8653 77.39 49.0464 77.2758 49.1993 77.1289L69.4629 57.7656C69.6083 57.6265 69.8018 57.5489 70.003 57.5489C70.2042 57.5489 70.3976 57.6265 70.543 57.7656L90.8086 77.1289C91.1072 77.4152 91.507 77.5714 91.9205 77.5634C92.3341 77.5553 92.7275 77.3836 93.0147 77.0859C93.6143 76.4648 93.5645 75.4395 92.9405 74.8428Z" fill="black"/>
</svg>
