<svg width="53" height="54" viewBox="0 0 53 54" fill="none" xmlns="http://www.w3.org/2000/svg">
<path d="M37.8788 33.9623H35.4849L34.6364 33.1286C37.7089 29.498 39.3976 24.8626 39.3939 20.0686C39.3939 16.0994 38.2387 12.2194 36.0744 8.9191C33.9101 5.61883 30.8338 3.04659 27.2347 1.52764C23.6355 0.00869542 19.6751 -0.38873 15.8543 0.385622C12.0334 1.15997 8.52379 3.07132 5.76912 5.87797C3.01445 8.68461 1.13849 12.2605 0.378481 16.1534C-0.381531 20.0464 0.00853439 24.0815 1.49935 27.7485C2.99017 31.4156 5.51478 34.5499 8.75393 36.7551C11.9931 38.9602 15.8013 40.1372 19.697 40.1372C24.5758 40.1372 29.0606 38.3156 32.5152 35.2899L33.3333 36.1544V38.5935L48.4849 54L53 49.3997L37.8788 33.9623ZM19.697 33.9623C12.1515 33.9623 6.06061 27.7564 6.06061 20.0686C6.06061 12.3808 12.1515 6.17497 19.697 6.17497C27.2424 6.17497 33.3333 12.3808 33.3333 20.0686C33.3333 27.7564 27.2424 33.9623 19.697 33.9623Z" fill="#B8B8B8"/>
</svg>
