<svg width="70" height="70" viewBox="0 0 70 70" fill="none" xmlns="http://www.w3.org/2000/svg">
<path d="M70 13.125C70 19.9883 61.9199 30.2285 58.4336 34.3164C57.9141 34.918 57.1484 35.1504 56.4512 35H43.75C41.3301 35 39.375 36.9551 39.375 39.375C39.375 41.7949 41.3301 43.75 43.75 43.75H56.875C64.1211 43.75 70 49.6289 70 56.875C70 64.1211 64.1211 70 56.875 70H19.0859C20.2754 68.6465 21.7246 66.9102 23.1875 64.9688C24.0488 63.8203 24.9375 62.5625 25.7852 61.25H56.875C59.2949 61.25 61.25 59.2949 61.25 56.875C61.25 54.4551 59.2949 52.5 56.875 52.5H43.75C36.5039 52.5 30.625 46.6211 30.625 39.375C30.625 32.1289 36.5039 26.25 43.75 26.25H49.1914C46.3203 21.9434 43.75 16.9941 43.75 13.125C43.75 5.87891 49.6289 0 56.875 0C64.1211 0 70 5.87891 70 13.125ZM16.0098 66.8691C15.4902 67.457 15.0254 67.9766 14.6289 68.4141L14.3828 68.6875L14.3555 68.6602C13.5352 69.2891 12.3594 69.207 11.6211 68.4141C8.17578 64.668 0 55.0293 0 48.125C0 40.8789 5.87891 35 13.125 35C20.3711 35 26.25 40.8789 26.25 48.125C26.25 52.2266 23.3652 57.2852 20.3027 61.5098C18.8398 63.5195 17.3359 65.3379 16.0918 66.7734L16.0098 66.8691ZM17.5 48.125C17.5 46.9647 17.0391 45.8519 16.2186 45.0314C15.3981 44.2109 14.2853 43.75 13.125 43.75C11.9647 43.75 10.8519 44.2109 10.0314 45.0314C9.21094 45.8519 8.75 46.9647 8.75 48.125C8.75 49.2853 9.21094 50.3981 10.0314 51.2186C10.8519 52.0391 11.9647 52.5 13.125 52.5C14.2853 52.5 15.3981 52.0391 16.2186 51.2186C17.0391 50.3981 17.5 49.2853 17.5 48.125ZM56.875 17.5C58.0353 17.5 59.1481 17.0391 59.9686 16.2186C60.7891 15.3981 61.25 14.2853 61.25 13.125C61.25 11.9647 60.7891 10.8519 59.9686 10.0314C59.1481 9.21094 58.0353 8.75 56.875 8.75C55.7147 8.75 54.6019 9.21094 53.7814 10.0314C52.9609 10.8519 52.5 11.9647 52.5 13.125C52.5 14.2853 52.9609 15.3981 53.7814 16.2186C54.6019 17.0391 55.7147 17.5 56.875 17.5Z" fill="#F5A524"/>
</svg>
