<svg width="42" height="42" viewBox="0 0 42 42" fill="none" xmlns="http://www.w3.org/2000/svg">
<path d="M34.0599 4.08031C35.4312 5.15551 36.3762 6.89221 36.7626 8.71081L36.8991 8.76541L41.1936 10.752C41.4335 10.8624 41.6368 11.0391 41.7797 11.2612C41.9226 11.4833 41.999 11.7416 42 12.0057V37.9764C41.9985 38.1922 41.947 38.4046 41.8495 38.5971C41.7521 38.7896 41.6114 38.9569 41.4385 39.0859C41.2655 39.2149 41.0651 39.302 40.8528 39.3405C40.6405 39.379 40.4222 39.3678 40.215 39.3078L28.3101 35.9478L14.1561 39.8496C13.9008 39.9202 13.6307 39.9173 13.377 39.8412L0.9954 36.1557C0.709213 36.0717 0.457778 35.8975 0.27845 35.6592C0.099122 35.4208 0.00146929 35.131 0 34.8327L0 8.39581C0 7.47181 0.8988 6.80821 1.7955 7.06861L13.7697 10.5567L19.8555 8.69401C19.9395 8.66881 20.0249 8.65131 20.1117 8.64151C20.3469 7.26391 21.0042 5.94091 22.1067 4.65151C23.415 3.11851 25.7103 2.21971 27.9468 2.11261C30.2673 2.00131 32.0397 2.49691 34.0578 4.07821M2.7993 10.2501V33.8016L13.0263 36.8445V13.2258L2.7993 10.2501ZM20.0382 11.5395L15.8256 12.8268V36.5127L26.4621 33.5853V26.6658C26.4621 25.9014 27.09 25.2819 27.8628 25.2819C28.6356 25.2819 29.2614 25.9014 29.2614 26.6679V33.3396L39.2007 36.1431V12.8856L36.8487 11.7936C36.8095 12.0246 36.7584 12.2507 36.6954 12.4719C36.2405 14.0828 35.4742 15.5889 34.44 16.905L29.2383 23.4003C29.1013 23.5711 28.9264 23.7076 28.7275 23.7989C28.5285 23.8902 28.311 23.9338 28.0922 23.9262C27.8734 23.9187 27.6594 23.8602 27.4672 23.7554C27.275 23.6506 27.1099 23.5024 26.985 23.3226L22.1235 16.2813C21.3199 15.1627 20.7592 14.1575 20.4414 13.2657C20.2416 12.7076 20.1063 12.1284 20.0382 11.5395ZM28.0812 4.88041C26.5566 4.95391 24.99 5.56711 24.2445 6.43861C23.3478 7.48861 22.9068 8.47141 22.8186 9.46681C22.7136 10.6659 22.785 11.5122 23.0832 12.3501C23.3037 12.9696 23.7426 13.755 24.4209 14.7021L28.224 20.2083L32.235 15.1998C33.0447 14.166 33.6447 12.984 34.0011 11.7201C34.5051 9.95611 33.7449 7.36471 32.3211 6.25171C30.8616 5.10721 29.7591 4.79851 28.0833 4.88041M28.3731 6.34411C30.6915 6.34411 32.5731 8.20262 32.5731 10.4958C32.5659 11.6031 32.1195 12.6622 31.332 13.4406C30.5446 14.219 29.4804 14.6531 28.3731 14.6475C26.0547 14.6475 24.1731 12.789 24.1731 10.4958C24.1731 8.20262 26.0547 6.34411 28.3731 6.34411ZM28.3731 9.11192C28.1903 9.11081 28.009 9.14573 27.8396 9.21468C27.6703 9.28363 27.5162 9.38526 27.3861 9.51376C27.2561 9.64227 27.1526 9.79514 27.0816 9.96364C27.0106 10.1321 26.9735 10.313 26.9724 10.4958C26.9724 11.2602 27.6003 11.8797 28.3731 11.8797C28.5559 11.8805 28.7372 11.8454 28.9064 11.7761C29.0756 11.7069 29.2296 11.6051 29.3595 11.4764C29.4893 11.3477 29.5926 11.1947 29.6633 11.026C29.734 10.8574 29.7709 10.6766 29.7717 10.4937C29.7689 10.1252 29.6201 9.77279 29.358 9.51377C29.0958 9.25475 28.7416 9.11024 28.3731 9.11192Z" fill="#F5A524"/>
</svg>
