<svg width="26" height="26" viewBox="0 0 26 26" fill="none" xmlns="http://www.w3.org/2000/svg">
<path d="M25.6608 12.8304C25.6608 5.74441 19.9164 0 12.8304 0C5.74441 0 0 5.74441 0 12.8304C0 19.2344 4.69192 24.5424 10.8257 25.5049V16.5392H7.56793V12.8304H10.8257V10.0037C10.8257 6.78808 12.7412 5.01187 15.6719 5.01187C17.0757 5.01187 18.5439 5.26247 18.5439 5.26247V8.41995H16.9261C15.3322 8.41995 14.8352 9.40899 14.8352 10.4237V12.8304H18.3936L17.8247 16.5392H14.8352V25.5049C20.9689 24.5424 25.6608 19.2345 25.6608 12.8304Z" fill="#1877F2"/>
<path d="M17.8247 16.539L18.3935 12.8302H14.8351V10.4235C14.8351 9.40874 15.3322 8.41979 16.926 8.41979H18.5439V5.26231C18.5439 5.26231 17.0756 5.01172 15.6718 5.01172C12.7411 5.01172 10.8256 6.78793 10.8256 10.0035V12.8302H7.56787V16.539H10.8256V25.5048C11.4888 25.6087 12.1591 25.6608 12.8303 25.6606C13.5016 25.6608 14.1719 25.6087 14.8351 25.5048V16.539H17.8247Z" fill="white"/>
</svg>
