<svg width="25" height="23" viewBox="0 0 25 23" fill="none" xmlns="http://www.w3.org/2000/svg">
<path d="M12.4333 0C5.57013 0 0 4.98619 0 11.1299C0 17.2736 5.57013 22.2598 12.4333 22.2598C19.2965 22.2598 24.8667 17.2736 24.8667 11.1299C24.8667 4.98619 19.2965 0 12.4333 0ZM12.4333 4.45195C14.833 4.45195 16.785 6.19935 16.785 8.34741C16.785 10.4955 14.833 12.2429 12.4333 12.2429C10.0337 12.2429 8.08167 10.4955 8.08167 8.34741C8.08167 6.19935 10.0337 4.45195 12.4333 4.45195ZM12.4333 20.0338C9.90937 20.0338 6.92537 19.1211 4.79927 16.8284C6.97737 15.2994 9.66537 14.4684 12.4333 14.4684C15.2013 14.4684 17.8893 15.2994 20.0674 16.8284C17.9413 19.1211 14.9573 20.0338 12.4333 20.0338Z" fill="#B8B8B8"/>
</svg>
