<svg width="60" height="74" viewBox="0 0 60 74" fill="none" xmlns="http://www.w3.org/2000/svg">
<path d="M18.1438 30.8125C18.1438 27.6879 19.385 24.6913 21.5944 22.4819C23.8039 20.2725 26.8005 19.0313 29.925 19.0312C33.0496 19.0313 36.0462 20.2725 38.2556 22.4819C40.4651 24.6913 41.7063 27.6879 41.7063 30.8125C41.7063 33.9371 40.4651 36.9337 38.2556 39.1431C36.0462 41.3525 33.0496 42.5938 29.925 42.5938C26.8005 42.5938 23.8039 41.3525 21.5944 39.1431C19.385 36.9337 18.1438 33.9371 18.1438 30.8125Z" fill="black"/>
<path fill-rule="evenodd" clip-rule="evenodd" d="M0.105854 26.7416C0.708825 19.4545 4.02892 12.6602 9.40748 7.7067C14.786 2.75319 21.8301 0.00238008 29.1421 0H30.7081C38.0202 0.00238008 45.0642 2.75319 50.4427 7.7067C55.8213 12.6602 59.1414 19.4545 59.7444 26.7416C60.4135 34.8776 57.9017 42.9561 52.7372 49.2783L35.3626 70.528C34.7041 71.334 33.8746 71.9836 32.9342 72.4296C31.9938 72.8756 30.9659 73.107 29.9251 73.107C28.8843 73.107 27.8565 72.8756 26.916 72.4296C25.9756 71.9836 25.1461 71.334 24.4876 70.528L7.1166 49.2783C1.95084 42.9566 -0.562246 34.8781 0.105854 26.7416ZM29.9251 13.5938C25.3584 13.5938 20.9788 15.4079 17.7496 18.637C14.5205 21.8661 12.7064 26.2458 12.7064 30.8125C12.7064 35.3792 14.5205 39.7589 17.7496 42.988C20.9788 46.2171 25.3584 48.0313 29.9251 48.0313C34.4918 48.0313 38.8715 46.2171 42.1006 42.988C45.3297 39.7589 47.1439 35.3792 47.1439 30.8125C47.1439 26.2458 45.3297 21.8661 42.1006 18.637C38.8715 15.4079 34.4918 13.5938 29.9251 13.5938Z" fill="black"/>
</svg>
