<svg width="19" height="24" viewBox="0 0 19 24" fill="none" xmlns="http://www.w3.org/2000/svg">
<path d="M9.06597 17.9102C9.66708 17.9102 10.2436 17.6743 10.6686 17.2544C11.0937 16.8346 11.3325 16.2651 11.3325 15.6714C11.3325 15.0776 11.0937 14.5082 10.6686 14.0883C10.2436 13.6685 9.66708 13.4326 9.06597 13.4326C8.46486 13.4326 7.88837 13.6685 7.46332 14.0883C7.03827 14.5082 6.79948 15.0776 6.79948 15.6714C6.79948 16.2651 7.03827 16.8346 7.46332 17.2544C7.88837 17.6743 8.46486 17.9102 9.06597 17.9102ZM15.8654 7.83569C16.4666 7.83569 17.0431 8.07156 17.4681 8.49141C17.8932 8.91127 18.1319 9.4807 18.1319 10.0745V21.2683C18.1319 21.8621 17.8932 22.4315 17.4681 22.8514C17.0431 23.2712 16.4666 23.5071 15.8654 23.5071H2.26649C1.66538 23.5071 1.08889 23.2712 0.66384 22.8514C0.23879 22.4315 0 21.8621 0 21.2683V10.0745C0 9.4807 0.23879 8.91127 0.66384 8.49141C1.08889 8.07156 1.66538 7.83569 2.26649 7.83569H3.39974V5.59692C3.39974 4.11253 3.99672 2.68893 5.05934 1.6393C6.12196 0.589674 7.56319 0 9.06597 0C9.81007 0 10.5469 0.144769 11.2343 0.42604C11.9218 0.707312 12.5464 1.11958 13.0726 1.6393C13.5988 2.15902 14.0161 2.77602 14.3009 3.45507C14.5856 4.13412 14.7322 4.86193 14.7322 5.59692V7.83569H15.8654ZM9.06597 2.23877C8.1643 2.23877 7.29957 2.59257 6.66199 3.22235C6.02442 3.85213 5.66623 4.70629 5.66623 5.59692V7.83569H12.4657V5.59692C12.4657 4.70629 12.1075 3.85213 11.47 3.22235C10.8324 2.59257 9.96764 2.23877 9.06597 2.23877Z" fill="#B8B8B8"/>
</svg>
