<svg width="104" height="104" viewBox="0 0 104 104" fill="none" xmlns="http://www.w3.org/2000/svg">
<g clip-path="url(#clip0_410_61)">
<path fill-rule="evenodd" clip-rule="evenodd" d="M14.8571 2.11981e-07C14.1509 -0.00023836 13.4591 0.200901 12.8631 0.579831C12.2671 0.958762 11.7915 1.49977 11.492 2.13943L0.349143 25.9777C0.0758819 26.5644 -0.0393524 27.2122 0.0148571 27.8571H0V34.8771C0 38.7697 1.67886 42.4989 4.68 45.2474C7.66629 47.996 11.7297 49.5411 15.964 49.5411H18.1926C22.3601 49.5677 26.3871 48.0363 29.484 45.2474C30.7023 44.1232 31.6928 42.8653 32.4554 41.4737C33.3989 40.2109 34.9291 40.2109 35.8131 41.3697C36.5808 42.8059 37.5886 44.0985 38.8366 45.2474C41.8303 47.996 45.8937 49.5411 50.128 49.5411H54.1171C58.2846 49.5677 62.3117 48.0363 65.4086 45.2474C66.5724 44.1728 67.5282 42.9743 68.276 41.652C69.2491 40.1291 70.9503 40.1663 71.8417 41.5777C72.5994 42.9297 73.5701 44.153 74.7537 45.2474C77.7474 47.996 81.8109 49.5411 86.0451 49.5411H88.036C92.2703 49.5411 96.3337 48.0034 99.3274 45.2474C102.321 42.4914 104 38.7771 104 34.8771V27.8571H103.985C104.039 27.2122 103.924 26.5644 103.651 25.9777L92.508 2.13943C92.2085 1.49977 91.7329 0.958762 91.1369 0.579831C90.5408 0.200901 89.8491 -0.00023836 89.1429 2.11981e-07H14.8571ZM7.42857 96.5714V57.4154C16.2537 60.3274 26.78 59.0274 34.008 53.4337C43.6503 60.892 60.372 60.892 70.0069 53.4337C77.272 59.0497 87.776 60.3274 96.5714 57.3411V96.5714C96.5714 98.5416 95.7888 100.431 94.3956 101.824C93.0025 103.217 91.113 104 89.1429 104H79.8126V75.8457C79.8158 75.6274 79.7709 75.411 79.6811 75.212C79.5912 75.013 79.4585 74.8362 79.2926 74.6943C78.948 74.3848 78.5003 74.2152 78.0371 74.2189H63.2394C62.7738 74.2134 62.323 74.3831 61.9766 74.6943C61.8106 74.8362 61.678 75.013 61.5881 75.212C61.4982 75.411 61.4533 75.6274 61.4566 75.8457V104H14.8571C12.887 104 10.9975 103.217 9.60435 101.824C8.21122 100.431 7.42857 98.5416 7.42857 96.5714ZM18.5863 79.9314V70.5714C18.5863 69.5863 18.9776 68.6416 19.6742 67.945C20.3707 67.2485 21.3155 66.8571 22.3006 66.8571H44.6903C45.6754 66.8571 46.6201 67.2485 47.3167 67.945C48.0132 68.6416 48.4046 69.5863 48.4046 70.5714V79.9314C48.4046 80.9165 48.0132 81.8613 47.3167 82.5578C46.6201 83.2544 45.6754 83.6457 44.6903 83.6457H22.3006C21.3155 83.6457 20.3707 83.2544 19.6742 82.5578C18.9776 81.8613 18.5863 80.9165 18.5863 79.9314Z" fill="black"/>
</g>
<defs>
<clipPath id="clip0_410_61">
<rect width="104" height="104" fill="white"/>
</clipPath>
</defs>
</svg>
