<svg width="80" height="71" viewBox="0 0 80 71" fill="none" xmlns="http://www.w3.org/2000/svg">
<ellipse cx="39.9" cy="35.175" rx="39.9" ry="35.175" fill="#23221E"/>
<mask id="path-2-inside-1_1_514" fill="white">
<path d="M39.3752 14.7007H59.8502V35.1757H57.2908V19.0796L20.7598 55.5907L18.9602 53.7911L55.4713 17.2601H39.3752V14.7007Z"/>
</mask>
<path d="M39.3752 14.7007H59.8502V35.1757H57.2908V19.0796L20.7598 55.5907L18.9602 53.7911L55.4713 17.2601H39.3752V14.7007Z" fill="#F5A524"/>
<path d="M39.3752 14.7007V-185.299H-160.625V14.7007H39.3752ZM59.8502 14.7007H259.85V-185.299H59.8502V14.7007ZM59.8502 35.1757V235.176H259.85V35.1757H59.8502ZM57.2908 35.1757H-142.709V235.176H57.2908V35.1757ZM57.2908 19.0796H257.291V-463.576L-84.0918 -122.38L57.2908 19.0796ZM20.7598 55.5907L-120.662 197.012L20.7211 338.395L162.142 197.051L20.7598 55.5907ZM18.9602 53.7911L-122.5 -87.5915L-263.844 53.8298L-122.461 195.212L18.9602 53.7911ZM55.4713 17.2601L196.931 158.643L538.127 -182.74H55.4713V17.2601ZM39.3752 17.2601H-160.625V217.26H39.3752V17.2601ZM39.3752 14.7007V214.701H59.8502V14.7007V-185.299H39.3752V14.7007ZM59.8502 14.7007H-140.15V35.1757H59.8502H259.85V14.7007H59.8502ZM59.8502 35.1757V-164.824H57.2908V35.1757V235.176H59.8502V35.1757ZM57.2908 35.1757H257.291V19.0796H57.2908H-142.709V35.1757H57.2908ZM57.2908 19.0796L-84.0918 -122.38L-120.623 -85.8694L20.7598 55.5907L162.142 197.051L198.673 160.54L57.2908 19.0796ZM20.7598 55.5907L162.181 -85.8307L160.382 -87.6302L18.9602 53.7911L-122.461 195.212L-120.662 197.012L20.7598 55.5907ZM18.9602 53.7911L160.42 195.174L196.931 158.643L55.4713 17.2601L-85.9888 -124.123L-122.5 -87.5915L18.9602 53.7911ZM55.4713 17.2601V-182.74H39.3752V17.2601V217.26H55.4713V17.2601ZM39.3752 17.2601H239.375V14.7007H39.3752H-160.625V17.2601H39.3752Z" fill="#F5A524" mask="url(#path-2-inside-1_1_514)"/>
</svg>
