<svg width="104" height="104" viewBox="0 0 104 104" fill="none" xmlns="http://www.w3.org/2000/svg">
<path d="M38.9993 13H64.9993C71.1592 12.9994 77.1192 15.1859 81.8173 19.1698C86.5155 23.1537 89.6466 28.6762 90.6527 34.7533C90.0547 34.6956 89.448 34.6667 88.8327 34.6667C83.661 34.6667 78.7011 36.7211 75.0441 40.3781C71.3871 44.035 69.3327 48.9949 69.3327 54.1667V60.6667H34.666V54.1667C34.6658 51.4526 34.099 48.7684 33.0019 46.2859C31.9048 43.8034 30.3016 41.5773 28.2948 39.75C26.288 37.9227 23.9219 36.5344 21.3477 35.674C18.7736 34.8136 16.0483 34.5 13.346 34.7533C14.3521 28.6762 17.4832 23.1537 22.1813 19.1698C26.8795 15.1859 32.8395 12.9994 38.9993 13ZM12.9993 43.55C14.5735 43.2287 16.1994 43.2615 17.7593 43.6461C19.3193 44.0307 20.7741 44.7574 22.0185 45.7737C23.2629 46.7899 24.2656 48.0702 24.9541 49.5219C25.6426 50.9735 25.9997 52.56 25.9993 54.1667V73.6667H34.666V69.3333H69.3327V73.6667H77.9993V54.1667C77.9993 51.2935 79.1407 48.538 81.1724 46.5063C83.204 44.4747 85.9595 43.3333 88.8327 43.3333C91.7059 43.3333 94.4614 44.4747 96.493 46.5063C98.5246 48.538 99.666 51.2935 99.666 54.1667C99.666 56.719 98.8773 58.669 97.976 60.905C96.7627 63.921 95.3327 67.4483 95.3327 73.6667V86.6667C95.3327 87.8159 94.8761 88.9181 94.0635 89.7308C93.2508 90.5435 92.1486 91 90.9993 91H12.9993C11.8501 91 10.7479 90.5435 9.93521 89.7308C9.12256 88.9181 8.66602 87.8159 8.66602 86.6667V73.6667C8.66602 67.4527 7.23601 63.9167 6.02267 60.905C5.12135 58.669 4.33268 56.719 4.33268 54.1667C4.33217 51.6693 5.19454 49.2484 6.77385 47.3137C8.35316 45.3791 10.5524 44.0495 12.9993 43.55Z" fill="black"/>
</svg>
