<svg width="78" height="67" viewBox="0 0 78 67" fill="none" xmlns="http://www.w3.org/2000/svg">
<path d="M17.7273 67C14.7727 67 12.2614 65.7786 10.1932 63.3359C8.125 60.8932 7.09091 57.9271 7.09091 54.4375H0V8.375C0 6.07188 0.694318 4.10026 2.08295 2.46016C3.47159 0.820052 5.14091 0 7.09091 0H56.7273V16.75H67.3636L78 33.5V54.4375H70.9091C70.9091 57.9271 69.875 60.8932 67.8068 63.3359C65.7386 65.7786 63.2273 67 60.2727 67C57.3182 67 54.8068 65.7786 52.7386 63.3359C50.6705 60.8932 49.6364 57.9271 49.6364 54.4375H28.3636C28.3636 57.9271 27.3295 60.8932 25.2614 63.3359C23.1932 65.7786 20.6818 67 17.7273 67ZM17.7273 58.625C18.7318 58.625 19.5739 58.2237 20.2534 57.4211C20.933 56.6185 21.2727 55.624 21.2727 54.4375C21.2727 53.251 20.933 52.2565 20.2534 51.4539C19.5739 50.6513 18.7318 50.25 17.7273 50.25C16.7227 50.25 15.8807 50.6513 15.2011 51.4539C14.5216 52.2565 14.1818 53.251 14.1818 54.4375C14.1818 55.624 14.5216 56.6185 15.2011 57.4211C15.8807 58.2237 16.7227 58.625 17.7273 58.625ZM7.09091 46.0625H9.92727C10.9318 44.8063 12.0841 43.7943 13.3841 43.0266C14.6841 42.2589 16.1318 41.875 17.7273 41.875C19.3227 41.875 20.7705 42.2589 22.0705 43.0266C23.3705 43.7943 24.5227 44.8063 25.5273 46.0625H49.6364V8.375H7.09091V46.0625ZM60.2727 58.625C61.2773 58.625 62.1193 58.2237 62.7989 57.4211C63.4784 56.6185 63.8182 55.624 63.8182 54.4375C63.8182 53.251 63.4784 52.2565 62.7989 51.4539C62.1193 50.6513 61.2773 50.25 60.2727 50.25C59.2682 50.25 58.4261 50.6513 57.7466 51.4539C57.067 52.2565 56.7273 53.251 56.7273 54.4375C56.7273 55.624 57.067 56.6185 57.7466 57.4211C58.4261 58.2237 59.2682 58.625 60.2727 58.625ZM56.7273 37.6875H71.7954L63.8182 25.125H56.7273V37.6875Z" fill="#221B10"/>
</svg>
