<svg width="117" height="117" viewBox="0 0 117 117" fill="none" xmlns="http://www.w3.org/2000/svg">
<path d="M60.3143 13.68C60.058 13.3807 59.74 13.1404 59.382 12.9756C59.0241 12.8109 58.6347 12.7256 58.2406 12.7256C57.8466 12.7256 57.4572 12.8109 57.0993 12.9756C56.7413 13.1404 56.4233 13.3807 56.167 13.68C48.9643 22.1043 25.4795 51.2288 25.4795 72.8027C25.4795 92.9068 38.1376 105.563 58.2395 105.563C78.3414 105.563 90.9995 92.9068 90.9995 72.8027C90.9995 51.2288 67.5147 22.1043 60.3143 13.68ZM61.8795 93.7327C61.4422 93.7336 61.0112 93.6295 60.6225 93.4292C60.2339 93.2288 59.899 92.938 59.6462 92.5813C59.3934 92.2245 59.2299 91.8123 59.1696 91.3792C59.1093 90.9461 59.1539 90.5049 59.2996 90.0927C59.4858 89.5548 59.8369 89.0893 60.303 88.7625C60.769 88.4358 61.3263 88.2643 61.8954 88.2727C65.509 88.2649 68.9723 86.8259 71.5275 84.2707C74.0827 81.7155 75.5217 78.2522 75.5295 74.6386C75.5212 74.0695 75.6926 73.5122 76.0194 73.0461C76.3461 72.5801 76.8116 72.229 77.3495 72.0428C77.7617 71.8971 78.203 71.8525 78.636 71.9128C79.0691 71.9731 79.4814 72.1365 79.8381 72.3894C80.1948 72.6422 80.4856 72.977 80.686 73.3657C80.8864 73.7543 80.9904 74.1854 80.9895 74.6227C80.9841 79.6893 78.969 84.5468 75.3863 88.1295C71.8037 91.7121 66.9461 93.7272 61.8795 93.7327Z" fill="black"/>
</svg>
